<mxfile host="app.diagrams.net" modified="2020-10-17T01:43:04.893Z" agent="5.0 (Macintosh; Intel Mac OS X 10_15_5) AppleWebKit/537.36 (KHTML, like Gecko) Chrome/86.0.4240.80 Safari/537.36" etag="R-YexOoIbLG-akY0Hwj7" version="13.8.0" type="github">
  <diagram id="R2lEEEUBdFMjLlhIrx00" name="Page-1">
    <mxGraphModel dx="1963" dy="1860" grid="1" gridSize="10" guides="1" tooltips="1" connect="1" arrows="1" fold="1" page="1" pageScale="1" pageWidth="850" pageHeight="1100" math="0" shadow="0" extFonts="Permanent Marker^https://fonts.googleapis.com/css?family=Permanent+Marker">
      <root>
        <mxCell id="0" />
        <mxCell id="1" parent="0" />
        <mxCell id="zRDwUKBVsf5BpW-rmKpL-4" value="" style="endArrow=none;html=1;" edge="1" parent="1">
          <mxGeometry width="50" height="50" relative="1" as="geometry">
            <mxPoint x="440" y="160" as="sourcePoint" />
            <mxPoint x="440" y="80" as="targetPoint" />
            <Array as="points">
              <mxPoint x="440" y="150" />
            </Array>
          </mxGeometry>
        </mxCell>
        <mxCell id="zRDwUKBVsf5BpW-rmKpL-5" value="" style="endArrow=none;html=1;" edge="1" parent="1">
          <mxGeometry width="50" height="50" relative="1" as="geometry">
            <mxPoint x="429.5" y="160" as="sourcePoint" />
            <mxPoint x="429.5" y="80" as="targetPoint" />
            <Array as="points">
              <mxPoint x="429.5" y="150" />
            </Array>
          </mxGeometry>
        </mxCell>
        <mxCell id="zRDwUKBVsf5BpW-rmKpL-6" value="" style="ellipse;whiteSpace=wrap;html=1;aspect=fixed;fillColor=#fad7ac;strokeColor=#b46504;" vertex="1" parent="1">
          <mxGeometry x="414" y="120" width="40" height="40" as="geometry" />
        </mxCell>
        <mxCell id="zRDwUKBVsf5BpW-rmKpL-7" value="o" style="text;html=1;strokeColor=none;fillColor=none;align=center;verticalAlign=middle;whiteSpace=wrap;rounded=0;" vertex="1" parent="1">
          <mxGeometry x="414" y="130" width="40" height="20" as="geometry" />
        </mxCell>
        <mxCell id="zRDwUKBVsf5BpW-rmKpL-8" value="" style="endArrow=none;html=1;" edge="1" parent="1">
          <mxGeometry width="50" height="50" relative="1" as="geometry">
            <mxPoint x="380" y="210" as="sourcePoint" />
            <mxPoint x="430" y="160" as="targetPoint" />
          </mxGeometry>
        </mxCell>
        <mxCell id="zRDwUKBVsf5BpW-rmKpL-9" value="" style="endArrow=none;html=1;" edge="1" parent="1">
          <mxGeometry width="50" height="50" relative="1" as="geometry">
            <mxPoint x="499" y="211" as="sourcePoint" />
            <mxPoint x="439" y="161" as="targetPoint" />
          </mxGeometry>
        </mxCell>
        <mxCell id="zRDwUKBVsf5BpW-rmKpL-12" value="Employee" style="shape=table;startSize=30;container=1;collapsible=1;childLayout=tableLayout;fixedRows=1;rowLines=0;fontStyle=1;align=center;resizeLast=1;fillColor=#0050ef;strokeColor=#001DBC;fontColor=#ffffff;" vertex="1" parent="1">
          <mxGeometry x="310" y="-90" width="250" height="170" as="geometry" />
        </mxCell>
        <mxCell id="zRDwUKBVsf5BpW-rmKpL-13" value="" style="shape=partialRectangle;collapsible=0;dropTarget=0;pointerEvents=0;fillColor=none;points=[[0,0.5],[1,0.5]];portConstraint=eastwest;top=0;left=0;right=0;bottom=1;" vertex="1" parent="zRDwUKBVsf5BpW-rmKpL-12">
          <mxGeometry y="30" width="250" height="30" as="geometry" />
        </mxCell>
        <mxCell id="zRDwUKBVsf5BpW-rmKpL-14" value="PK" style="shape=partialRectangle;overflow=hidden;connectable=0;fillColor=none;top=0;left=0;bottom=0;right=0;fontStyle=1;" vertex="1" parent="zRDwUKBVsf5BpW-rmKpL-13">
          <mxGeometry width="30" height="30" as="geometry" />
        </mxCell>
        <mxCell id="zRDwUKBVsf5BpW-rmKpL-15" value="id int NOT NULL " style="shape=partialRectangle;overflow=hidden;connectable=0;fillColor=none;top=0;left=0;bottom=0;right=0;align=left;spacingLeft=6;fontStyle=5;" vertex="1" parent="zRDwUKBVsf5BpW-rmKpL-13">
          <mxGeometry x="30" width="220" height="30" as="geometry" />
        </mxCell>
        <mxCell id="zRDwUKBVsf5BpW-rmKpL-16" value="" style="shape=partialRectangle;collapsible=0;dropTarget=0;pointerEvents=0;fillColor=none;points=[[0,0.5],[1,0.5]];portConstraint=eastwest;top=0;left=0;right=0;bottom=0;" vertex="1" parent="zRDwUKBVsf5BpW-rmKpL-12">
          <mxGeometry y="60" width="250" height="30" as="geometry" />
        </mxCell>
        <mxCell id="zRDwUKBVsf5BpW-rmKpL-17" value="" style="shape=partialRectangle;overflow=hidden;connectable=0;fillColor=none;top=0;left=0;bottom=0;right=0;" vertex="1" parent="zRDwUKBVsf5BpW-rmKpL-16">
          <mxGeometry width="30" height="30" as="geometry" />
        </mxCell>
        <mxCell id="zRDwUKBVsf5BpW-rmKpL-18" value="first_name char(50) NOT NULL" style="shape=partialRectangle;overflow=hidden;connectable=0;fillColor=none;top=0;left=0;bottom=0;right=0;align=left;spacingLeft=6;" vertex="1" parent="zRDwUKBVsf5BpW-rmKpL-16">
          <mxGeometry x="30" width="220" height="30" as="geometry" />
        </mxCell>
        <mxCell id="zRDwUKBVsf5BpW-rmKpL-19" value="Admin" style="shape=table;startSize=30;container=1;collapsible=1;childLayout=tableLayout;fixedRows=1;rowLines=0;fontStyle=1;align=center;resizeLast=1;fillColor=#d5e8d4;strokeColor=#82b366;" vertex="1" parent="1">
          <mxGeometry x="454" y="210" width="250" height="100" as="geometry" />
        </mxCell>
        <mxCell id="zRDwUKBVsf5BpW-rmKpL-20" value="" style="shape=partialRectangle;collapsible=0;dropTarget=0;pointerEvents=0;fillColor=none;points=[[0,0.5],[1,0.5]];portConstraint=eastwest;top=0;left=0;right=0;bottom=1;" vertex="1" parent="zRDwUKBVsf5BpW-rmKpL-19">
          <mxGeometry y="30" width="250" height="30" as="geometry" />
        </mxCell>
        <mxCell id="zRDwUKBVsf5BpW-rmKpL-21" value="PK" style="shape=partialRectangle;overflow=hidden;connectable=0;fillColor=none;top=0;left=0;bottom=0;right=0;fontStyle=1;" vertex="1" parent="zRDwUKBVsf5BpW-rmKpL-20">
          <mxGeometry width="30" height="30" as="geometry" />
        </mxCell>
        <mxCell id="zRDwUKBVsf5BpW-rmKpL-22" value="employee_id int NOT NULL " style="shape=partialRectangle;overflow=hidden;connectable=0;fillColor=none;top=0;left=0;bottom=0;right=0;align=left;spacingLeft=6;fontStyle=5;" vertex="1" parent="zRDwUKBVsf5BpW-rmKpL-20">
          <mxGeometry x="30" width="220" height="30" as="geometry" />
        </mxCell>
        <mxCell id="zRDwUKBVsf5BpW-rmKpL-23" value="" style="shape=partialRectangle;collapsible=0;dropTarget=0;pointerEvents=0;fillColor=none;points=[[0,0.5],[1,0.5]];portConstraint=eastwest;top=0;left=0;right=0;bottom=0;" vertex="1" parent="zRDwUKBVsf5BpW-rmKpL-19">
          <mxGeometry y="60" width="250" height="30" as="geometry" />
        </mxCell>
        <mxCell id="zRDwUKBVsf5BpW-rmKpL-24" value="" style="shape=partialRectangle;overflow=hidden;connectable=0;fillColor=none;top=0;left=0;bottom=0;right=0;" vertex="1" parent="zRDwUKBVsf5BpW-rmKpL-23">
          <mxGeometry width="30" height="30" as="geometry" />
        </mxCell>
        <mxCell id="zRDwUKBVsf5BpW-rmKpL-25" value="annual_salary number NOT NULL" style="shape=partialRectangle;overflow=hidden;connectable=0;fillColor=none;top=0;left=0;bottom=0;right=0;align=left;spacingLeft=6;" vertex="1" parent="zRDwUKBVsf5BpW-rmKpL-23">
          <mxGeometry x="30" width="220" height="30" as="geometry" />
        </mxCell>
        <mxCell id="zRDwUKBVsf5BpW-rmKpL-26" value="Care_Provider" style="shape=table;startSize=30;container=1;collapsible=1;childLayout=tableLayout;fixedRows=1;rowLines=0;fontStyle=1;align=center;resizeLast=1;fillColor=#d5e8d4;strokeColor=#82b366;" vertex="1" parent="1">
          <mxGeometry x="175" y="210" width="250" height="100" as="geometry" />
        </mxCell>
        <mxCell id="zRDwUKBVsf5BpW-rmKpL-27" value="" style="shape=partialRectangle;collapsible=0;dropTarget=0;pointerEvents=0;fillColor=none;points=[[0,0.5],[1,0.5]];portConstraint=eastwest;top=0;left=0;right=0;bottom=1;" vertex="1" parent="zRDwUKBVsf5BpW-rmKpL-26">
          <mxGeometry y="30" width="250" height="30" as="geometry" />
        </mxCell>
        <mxCell id="zRDwUKBVsf5BpW-rmKpL-28" value="PK" style="shape=partialRectangle;overflow=hidden;connectable=0;fillColor=none;top=0;left=0;bottom=0;right=0;fontStyle=1;" vertex="1" parent="zRDwUKBVsf5BpW-rmKpL-27">
          <mxGeometry width="30" height="30" as="geometry" />
        </mxCell>
        <mxCell id="zRDwUKBVsf5BpW-rmKpL-29" value="" style="shape=partialRectangle;overflow=hidden;connectable=0;fillColor=none;top=0;left=0;bottom=0;right=0;align=left;spacingLeft=6;fontStyle=5;" vertex="1" parent="zRDwUKBVsf5BpW-rmKpL-27">
          <mxGeometry x="30" width="220" height="30" as="geometry" />
        </mxCell>
        <mxCell id="zRDwUKBVsf5BpW-rmKpL-30" value="" style="shape=partialRectangle;collapsible=0;dropTarget=0;pointerEvents=0;fillColor=none;points=[[0,0.5],[1,0.5]];portConstraint=eastwest;top=0;left=0;right=0;bottom=0;" vertex="1" parent="zRDwUKBVsf5BpW-rmKpL-26">
          <mxGeometry y="60" width="250" height="30" as="geometry" />
        </mxCell>
        <mxCell id="zRDwUKBVsf5BpW-rmKpL-31" value="" style="shape=partialRectangle;overflow=hidden;connectable=0;fillColor=none;top=0;left=0;bottom=0;right=0;" vertex="1" parent="zRDwUKBVsf5BpW-rmKpL-30">
          <mxGeometry width="30" height="30" as="geometry" />
        </mxCell>
        <mxCell id="zRDwUKBVsf5BpW-rmKpL-32" value="visit_charge number NOT NULL" style="shape=partialRectangle;overflow=hidden;connectable=0;fillColor=none;top=0;left=0;bottom=0;right=0;align=left;spacingLeft=6;" vertex="1" parent="zRDwUKBVsf5BpW-rmKpL-30">
          <mxGeometry x="30" width="220" height="30" as="geometry" />
        </mxCell>
        <mxCell id="zRDwUKBVsf5BpW-rmKpL-33" value="employee_id int NOT NULL " style="shape=partialRectangle;overflow=hidden;connectable=0;fillColor=none;top=0;left=0;bottom=0;right=0;align=left;spacingLeft=6;fontStyle=5;" vertex="1" parent="1">
          <mxGeometry x="210" y="240" width="220" height="30" as="geometry" />
        </mxCell>
        <mxCell id="zRDwUKBVsf5BpW-rmKpL-34" value="isPermanent Boolean NOT NULL" style="shape=partialRectangle;overflow=hidden;connectable=0;fillColor=none;top=0;left=0;bottom=0;right=0;align=left;spacingLeft=6;" vertex="1" parent="1">
          <mxGeometry x="340" y="40" width="220" height="30" as="geometry" />
        </mxCell>
        <mxCell id="zRDwUKBVsf5BpW-rmKpL-39" style="edgeStyle=orthogonalEdgeStyle;rounded=0;orthogonalLoop=1;jettySize=auto;html=1;" edge="1" parent="1" source="zRDwUKBVsf5BpW-rmKpL-37">
          <mxGeometry relative="1" as="geometry">
            <mxPoint x="290" y="310" as="targetPoint" />
          </mxGeometry>
        </mxCell>
        <mxCell id="zRDwUKBVsf5BpW-rmKpL-37" value="supervise" style="shape=rhombus;perimeter=rhombusPerimeter;whiteSpace=wrap;html=1;align=center;fillColor=#a0522d;strokeColor=#6D1F00;fontColor=#ffffff;" vertex="1" parent="1">
          <mxGeometry x="390" y="370" width="110" height="60" as="geometry" />
        </mxCell>
        <mxCell id="zRDwUKBVsf5BpW-rmKpL-42" value="" style="endArrow=none;html=1;" edge="1" parent="1">
          <mxGeometry width="50" height="50" relative="1" as="geometry">
            <mxPoint x="580" y="400" as="sourcePoint" />
            <mxPoint x="580" y="310" as="targetPoint" />
          </mxGeometry>
        </mxCell>
        <mxCell id="zRDwUKBVsf5BpW-rmKpL-45" value="" style="endArrow=classic;html=1;entryX=1;entryY=0.5;entryDx=0;entryDy=0;" edge="1" parent="1" target="zRDwUKBVsf5BpW-rmKpL-37">
          <mxGeometry width="50" height="50" relative="1" as="geometry">
            <mxPoint x="580" y="399.5" as="sourcePoint" />
            <mxPoint x="510" y="399.5" as="targetPoint" />
            <Array as="points">
              <mxPoint x="570" y="399.5" />
            </Array>
          </mxGeometry>
        </mxCell>
        <mxCell id="zRDwUKBVsf5BpW-rmKpL-46" value="1/M" style="text;html=1;strokeColor=none;fillColor=none;align=center;verticalAlign=middle;whiteSpace=wrap;rounded=0;" vertex="1" parent="1">
          <mxGeometry x="520" y="370" width="40" height="20" as="geometry" />
        </mxCell>
        <mxCell id="zRDwUKBVsf5BpW-rmKpL-47" value="N" style="text;html=1;strokeColor=none;fillColor=none;align=center;verticalAlign=middle;whiteSpace=wrap;rounded=0;" vertex="1" parent="1">
          <mxGeometry x="300" y="370" width="40" height="20" as="geometry" />
        </mxCell>
        <mxCell id="zRDwUKBVsf5BpW-rmKpL-50" style="edgeStyle=orthogonalEdgeStyle;rounded=0;orthogonalLoop=1;jettySize=auto;html=1;entryX=1.004;entryY=0.067;entryDx=0;entryDy=0;entryPerimeter=0;" edge="1" parent="1" source="zRDwUKBVsf5BpW-rmKpL-49" target="C-vyLk0tnHw3VtMMgP7b-27">
          <mxGeometry relative="1" as="geometry" />
        </mxCell>
        <mxCell id="zRDwUKBVsf5BpW-rmKpL-49" value="manage" style="shape=rhombus;perimeter=rhombusPerimeter;whiteSpace=wrap;html=1;align=center;fillColor=#a0522d;strokeColor=#6D1F00;fontColor=#ffffff;" vertex="1" parent="1">
          <mxGeometry x="590" y="400" width="110" height="60" as="geometry" />
        </mxCell>
        <mxCell id="zRDwUKBVsf5BpW-rmKpL-52" value="1/M" style="text;html=1;strokeColor=none;fillColor=none;align=center;verticalAlign=middle;whiteSpace=wrap;rounded=0;" vertex="1" parent="1">
          <mxGeometry x="640" y="380" width="40" height="20" as="geometry" />
        </mxCell>
        <mxCell id="zRDwUKBVsf5BpW-rmKpL-53" value="N" style="text;html=1;strokeColor=none;fillColor=none;align=center;verticalAlign=middle;whiteSpace=wrap;rounded=0;" vertex="1" parent="1">
          <mxGeometry x="640" y="460" width="40" height="20" as="geometry" />
        </mxCell>
        <mxCell id="zRDwUKBVsf5BpW-rmKpL-57" style="edgeStyle=orthogonalEdgeStyle;rounded=0;orthogonalLoop=1;jettySize=auto;html=1;entryX=0;entryY=0.1;entryDx=0;entryDy=0;entryPerimeter=0;" edge="1" parent="1" source="zRDwUKBVsf5BpW-rmKpL-54" target="C-vyLk0tnHw3VtMMgP7b-27">
          <mxGeometry relative="1" as="geometry" />
        </mxCell>
        <mxCell id="zRDwUKBVsf5BpW-rmKpL-60" value="1/N" style="text;html=1;strokeColor=none;fillColor=none;align=center;verticalAlign=middle;whiteSpace=wrap;rounded=0;" vertex="1" parent="1">
          <mxGeometry x="230" y="460" width="40" height="20" as="geometry" />
        </mxCell>
        <mxCell id="zRDwUKBVsf5BpW-rmKpL-54" value="caters" style="shape=rhombus;perimeter=rhombusPerimeter;whiteSpace=wrap;html=1;align=center;fillColor=#a0522d;strokeColor=#6D1F00;fontColor=#ffffff;" vertex="1" parent="1">
          <mxGeometry x="175" y="400" width="110" height="50" as="geometry" />
        </mxCell>
        <mxCell id="zRDwUKBVsf5BpW-rmKpL-62" value="" style="endArrow=none;html=1;" edge="1" parent="1">
          <mxGeometry width="50" height="50" relative="1" as="geometry">
            <mxPoint x="230" y="400" as="sourcePoint" />
            <mxPoint x="229.5" y="310" as="targetPoint" />
          </mxGeometry>
        </mxCell>
        <mxCell id="zRDwUKBVsf5BpW-rmKpL-63" value="" style="endArrow=none;html=1;" edge="1" parent="1">
          <mxGeometry width="50" height="50" relative="1" as="geometry">
            <mxPoint x="645" y="400" as="sourcePoint" />
            <mxPoint x="644.5" y="310" as="targetPoint" />
          </mxGeometry>
        </mxCell>
        <mxCell id="zRDwUKBVsf5BpW-rmKpL-133" style="edgeStyle=orthogonalEdgeStyle;rounded=0;orthogonalLoop=1;jettySize=auto;html=1;exitX=0.5;exitY=1;exitDx=0;exitDy=0;entryX=0;entryY=0.5;entryDx=0;entryDy=0;" edge="1" parent="1" source="C-vyLk0tnHw3VtMMgP7b-23" target="zRDwUKBVsf5BpW-rmKpL-132">
          <mxGeometry relative="1" as="geometry" />
        </mxCell>
        <mxCell id="C-vyLk0tnHw3VtMMgP7b-23" value="Patient" style="shape=table;startSize=30;container=1;collapsible=1;childLayout=tableLayout;fixedRows=1;rowLines=0;fontStyle=1;align=center;resizeLast=1;fillColor=#0050ef;strokeColor=#001DBC;fontColor=#ffffff;" parent="1" vertex="1">
          <mxGeometry x="325" y="460" width="250" height="130" as="geometry" />
        </mxCell>
        <mxCell id="C-vyLk0tnHw3VtMMgP7b-24" value="" style="shape=partialRectangle;collapsible=0;dropTarget=0;pointerEvents=0;fillColor=none;points=[[0,0.5],[1,0.5]];portConstraint=eastwest;top=0;left=0;right=0;bottom=1;" parent="C-vyLk0tnHw3VtMMgP7b-23" vertex="1">
          <mxGeometry y="30" width="250" height="30" as="geometry" />
        </mxCell>
        <mxCell id="C-vyLk0tnHw3VtMMgP7b-25" value="PK" style="shape=partialRectangle;overflow=hidden;connectable=0;fillColor=none;top=0;left=0;bottom=0;right=0;fontStyle=1;" parent="C-vyLk0tnHw3VtMMgP7b-24" vertex="1">
          <mxGeometry width="30" height="30" as="geometry" />
        </mxCell>
        <mxCell id="C-vyLk0tnHw3VtMMgP7b-26" value="id int NOT NULL " style="shape=partialRectangle;overflow=hidden;connectable=0;fillColor=none;top=0;left=0;bottom=0;right=0;align=left;spacingLeft=6;fontStyle=5;" parent="C-vyLk0tnHw3VtMMgP7b-24" vertex="1">
          <mxGeometry x="30" width="220" height="30" as="geometry" />
        </mxCell>
        <mxCell id="C-vyLk0tnHw3VtMMgP7b-27" value="" style="shape=partialRectangle;collapsible=0;dropTarget=0;pointerEvents=0;fillColor=none;points=[[0,0.5],[1,0.5]];portConstraint=eastwest;top=0;left=0;right=0;bottom=0;" parent="C-vyLk0tnHw3VtMMgP7b-23" vertex="1">
          <mxGeometry y="60" width="250" height="30" as="geometry" />
        </mxCell>
        <mxCell id="C-vyLk0tnHw3VtMMgP7b-28" value="" style="shape=partialRectangle;overflow=hidden;connectable=0;fillColor=none;top=0;left=0;bottom=0;right=0;" parent="C-vyLk0tnHw3VtMMgP7b-27" vertex="1">
          <mxGeometry width="30" height="30" as="geometry" />
        </mxCell>
        <mxCell id="C-vyLk0tnHw3VtMMgP7b-29" value="first_name char(50) NOT NULL" style="shape=partialRectangle;overflow=hidden;connectable=0;fillColor=none;top=0;left=0;bottom=0;right=0;align=left;spacingLeft=6;" parent="C-vyLk0tnHw3VtMMgP7b-27" vertex="1">
          <mxGeometry x="30" width="220" height="30" as="geometry" />
        </mxCell>
        <mxCell id="zRDwUKBVsf5BpW-rmKpL-66" value="1" style="text;html=1;strokeColor=none;fillColor=none;align=center;verticalAlign=middle;whiteSpace=wrap;rounded=0;" vertex="1" parent="1">
          <mxGeometry x="230" y="380" width="40" height="20" as="geometry" />
        </mxCell>
        <mxCell id="zRDwUKBVsf5BpW-rmKpL-67" value="" style="endArrow=none;html=1;" edge="1" parent="1">
          <mxGeometry width="50" height="50" relative="1" as="geometry">
            <mxPoint x="434" y="630" as="sourcePoint" />
            <mxPoint x="434" y="590" as="targetPoint" />
            <Array as="points">
              <mxPoint x="433.5" y="630" />
            </Array>
          </mxGeometry>
        </mxCell>
        <mxCell id="zRDwUKBVsf5BpW-rmKpL-68" value="" style="endArrow=none;html=1;" edge="1" parent="1">
          <mxGeometry width="50" height="50" relative="1" as="geometry">
            <mxPoint x="445" y="620" as="sourcePoint" />
            <mxPoint x="445" y="590" as="targetPoint" />
            <Array as="points">
              <mxPoint x="444.5" y="630" />
            </Array>
          </mxGeometry>
        </mxCell>
        <mxCell id="zRDwUKBVsf5BpW-rmKpL-69" value="" style="ellipse;whiteSpace=wrap;html=1;aspect=fixed;fillColor=#fad7ac;strokeColor=#b46504;" vertex="1" parent="1">
          <mxGeometry x="420" y="620" width="40" height="40" as="geometry" />
        </mxCell>
        <mxCell id="zRDwUKBVsf5BpW-rmKpL-71" value="o" style="text;html=1;strokeColor=none;fillColor=none;align=center;verticalAlign=middle;whiteSpace=wrap;rounded=0;" vertex="1" parent="1">
          <mxGeometry x="420" y="630" width="40" height="20" as="geometry" />
        </mxCell>
        <mxCell id="zRDwUKBVsf5BpW-rmKpL-72" value="" style="endArrow=none;html=1;" edge="1" parent="1">
          <mxGeometry width="50" height="50" relative="1" as="geometry">
            <mxPoint x="370" y="700" as="sourcePoint" />
            <mxPoint x="420" y="650" as="targetPoint" />
          </mxGeometry>
        </mxCell>
        <mxCell id="zRDwUKBVsf5BpW-rmKpL-73" value="" style="endArrow=none;html=1;" edge="1" parent="1">
          <mxGeometry width="50" height="50" relative="1" as="geometry">
            <mxPoint x="514" y="700" as="sourcePoint" />
            <mxPoint x="454" y="650" as="targetPoint" />
          </mxGeometry>
        </mxCell>
        <mxCell id="zRDwUKBVsf5BpW-rmKpL-128" style="edgeStyle=orthogonalEdgeStyle;rounded=0;orthogonalLoop=1;jettySize=auto;html=1;entryX=0;entryY=0.5;entryDx=0;entryDy=0;" edge="1" parent="1" source="zRDwUKBVsf5BpW-rmKpL-74" target="zRDwUKBVsf5BpW-rmKpL-125">
          <mxGeometry relative="1" as="geometry" />
        </mxCell>
        <mxCell id="zRDwUKBVsf5BpW-rmKpL-74" value="Out_Patient" style="shape=table;startSize=30;container=1;collapsible=1;childLayout=tableLayout;fixedRows=1;rowLines=0;fontStyle=1;align=center;resizeLast=1;fillColor=#d5e8d4;strokeColor=#82b366;" vertex="1" parent="1">
          <mxGeometry x="175" y="700" width="250" height="250" as="geometry" />
        </mxCell>
        <mxCell id="zRDwUKBVsf5BpW-rmKpL-75" value="" style="shape=partialRectangle;collapsible=0;dropTarget=0;pointerEvents=0;fillColor=none;points=[[0,0.5],[1,0.5]];portConstraint=eastwest;top=0;left=0;right=0;bottom=1;" vertex="1" parent="zRDwUKBVsf5BpW-rmKpL-74">
          <mxGeometry y="30" width="250" height="30" as="geometry" />
        </mxCell>
        <mxCell id="zRDwUKBVsf5BpW-rmKpL-76" value="PK" style="shape=partialRectangle;overflow=hidden;connectable=0;fillColor=none;top=0;left=0;bottom=0;right=0;fontStyle=1;" vertex="1" parent="zRDwUKBVsf5BpW-rmKpL-75">
          <mxGeometry width="30" height="30" as="geometry" />
        </mxCell>
        <mxCell id="zRDwUKBVsf5BpW-rmKpL-77" value="patient_id int NOT NULL" style="shape=partialRectangle;overflow=hidden;connectable=0;fillColor=none;top=0;left=0;bottom=0;right=0;align=left;spacingLeft=6;fontStyle=5;" vertex="1" parent="zRDwUKBVsf5BpW-rmKpL-75">
          <mxGeometry x="30" width="220" height="30" as="geometry" />
        </mxCell>
        <mxCell id="zRDwUKBVsf5BpW-rmKpL-78" value="" style="shape=partialRectangle;collapsible=0;dropTarget=0;pointerEvents=0;fillColor=none;points=[[0,0.5],[1,0.5]];portConstraint=eastwest;top=0;left=0;right=0;bottom=0;" vertex="1" parent="zRDwUKBVsf5BpW-rmKpL-74">
          <mxGeometry y="60" width="250" height="30" as="geometry" />
        </mxCell>
        <mxCell id="zRDwUKBVsf5BpW-rmKpL-79" value="FK" style="shape=partialRectangle;overflow=hidden;connectable=0;fillColor=none;top=0;left=0;bottom=0;right=0;" vertex="1" parent="zRDwUKBVsf5BpW-rmKpL-78">
          <mxGeometry width="30" height="30" as="geometry" />
        </mxCell>
        <mxCell id="zRDwUKBVsf5BpW-rmKpL-80" value="bill_id char(25) NOT NULL" style="shape=partialRectangle;overflow=hidden;connectable=0;fillColor=none;top=0;left=0;bottom=0;right=0;align=left;spacingLeft=6;" vertex="1" parent="zRDwUKBVsf5BpW-rmKpL-78">
          <mxGeometry x="30" width="220" height="30" as="geometry" />
        </mxCell>
        <mxCell id="zRDwUKBVsf5BpW-rmKpL-127" style="edgeStyle=orthogonalEdgeStyle;rounded=0;orthogonalLoop=1;jettySize=auto;html=1;entryX=1;entryY=0.5;entryDx=0;entryDy=0;" edge="1" parent="1" source="zRDwUKBVsf5BpW-rmKpL-81" target="zRDwUKBVsf5BpW-rmKpL-125">
          <mxGeometry relative="1" as="geometry" />
        </mxCell>
        <mxCell id="zRDwUKBVsf5BpW-rmKpL-168" style="edgeStyle=orthogonalEdgeStyle;rounded=0;orthogonalLoop=1;jettySize=auto;html=1;entryX=0;entryY=0.5;entryDx=0;entryDy=0;" edge="1" parent="1" source="zRDwUKBVsf5BpW-rmKpL-81" target="zRDwUKBVsf5BpW-rmKpL-167">
          <mxGeometry relative="1" as="geometry" />
        </mxCell>
        <mxCell id="zRDwUKBVsf5BpW-rmKpL-81" value="Admitted_Patient" style="shape=table;startSize=30;container=1;collapsible=1;childLayout=tableLayout;fixedRows=1;rowLines=0;fontStyle=1;align=center;resizeLast=1;fillColor=#d5e8d4;strokeColor=#82b366;" vertex="1" parent="1">
          <mxGeometry x="454" y="700" width="250" height="250" as="geometry" />
        </mxCell>
        <mxCell id="zRDwUKBVsf5BpW-rmKpL-82" value="" style="shape=partialRectangle;collapsible=0;dropTarget=0;pointerEvents=0;fillColor=none;points=[[0,0.5],[1,0.5]];portConstraint=eastwest;top=0;left=0;right=0;bottom=1;" vertex="1" parent="zRDwUKBVsf5BpW-rmKpL-81">
          <mxGeometry y="30" width="250" height="30" as="geometry" />
        </mxCell>
        <mxCell id="zRDwUKBVsf5BpW-rmKpL-83" value="PK" style="shape=partialRectangle;overflow=hidden;connectable=0;fillColor=none;top=0;left=0;bottom=0;right=0;fontStyle=1;" vertex="1" parent="zRDwUKBVsf5BpW-rmKpL-82">
          <mxGeometry width="30" height="30" as="geometry" />
        </mxCell>
        <mxCell id="zRDwUKBVsf5BpW-rmKpL-84" value="patient_id int NOT NULL " style="shape=partialRectangle;overflow=hidden;connectable=0;fillColor=none;top=0;left=0;bottom=0;right=0;align=left;spacingLeft=6;fontStyle=5;" vertex="1" parent="zRDwUKBVsf5BpW-rmKpL-82">
          <mxGeometry x="30" width="220" height="30" as="geometry" />
        </mxCell>
        <mxCell id="zRDwUKBVsf5BpW-rmKpL-89" value="" style="shape=partialRectangle;collapsible=0;dropTarget=0;pointerEvents=0;fillColor=none;top=0;left=0;bottom=0;right=0;points=[[0,0.5],[1,0.5]];portConstraint=eastwest;" vertex="1" parent="zRDwUKBVsf5BpW-rmKpL-81">
          <mxGeometry y="60" width="250" height="30" as="geometry" />
        </mxCell>
        <mxCell id="zRDwUKBVsf5BpW-rmKpL-90" value="FK" style="shape=partialRectangle;connectable=0;fillColor=none;top=0;left=0;bottom=0;right=0;editable=1;overflow=hidden;" vertex="1" parent="zRDwUKBVsf5BpW-rmKpL-89">
          <mxGeometry width="30" height="30" as="geometry" />
        </mxCell>
        <mxCell id="zRDwUKBVsf5BpW-rmKpL-91" value="" style="shape=partialRectangle;connectable=0;fillColor=none;top=0;left=0;bottom=0;right=0;align=left;spacingLeft=6;overflow=hidden;" vertex="1" parent="zRDwUKBVsf5BpW-rmKpL-89">
          <mxGeometry x="30" width="220" height="30" as="geometry" />
        </mxCell>
        <mxCell id="zRDwUKBVsf5BpW-rmKpL-85" value="" style="shape=partialRectangle;collapsible=0;dropTarget=0;pointerEvents=0;fillColor=none;points=[[0,0.5],[1,0.5]];portConstraint=eastwest;top=0;left=0;right=0;bottom=0;" vertex="1" parent="zRDwUKBVsf5BpW-rmKpL-81">
          <mxGeometry y="90" width="250" height="30" as="geometry" />
        </mxCell>
        <mxCell id="zRDwUKBVsf5BpW-rmKpL-86" value="FK" style="shape=partialRectangle;overflow=hidden;connectable=0;fillColor=none;top=0;left=0;bottom=0;right=0;" vertex="1" parent="zRDwUKBVsf5BpW-rmKpL-85">
          <mxGeometry width="30" height="30" as="geometry" />
        </mxCell>
        <mxCell id="zRDwUKBVsf5BpW-rmKpL-87" value="" style="shape=partialRectangle;overflow=hidden;connectable=0;fillColor=none;top=0;left=0;bottom=0;right=0;align=left;spacingLeft=6;" vertex="1" parent="zRDwUKBVsf5BpW-rmKpL-85">
          <mxGeometry x="30" width="220" height="30" as="geometry" />
        </mxCell>
        <mxCell id="zRDwUKBVsf5BpW-rmKpL-92" value="followUp_date DATE NULLABLE" style="shape=partialRectangle;overflow=hidden;connectable=0;fillColor=none;top=0;left=0;bottom=0;right=0;align=left;spacingLeft=6;" vertex="1" parent="1">
          <mxGeometry x="200" y="830" width="220" height="30" as="geometry" />
        </mxCell>
        <mxCell id="zRDwUKBVsf5BpW-rmKpL-93" value="followUp_date DATE NULLABLE" style="shape=partialRectangle;overflow=hidden;connectable=0;fillColor=none;top=0;left=0;bottom=0;right=0;align=left;spacingLeft=6;" vertex="1" parent="1">
          <mxGeometry x="484" y="840" width="220" height="30" as="geometry" />
        </mxCell>
        <mxCell id="zRDwUKBVsf5BpW-rmKpL-94" value="discharge_date DATE NULLABLE" style="shape=partialRectangle;connectable=0;fillColor=none;top=0;left=0;bottom=0;right=0;align=left;spacingLeft=6;overflow=hidden;" vertex="1" parent="1">
          <mxGeometry x="864" y="980" width="220" height="30" as="geometry" />
        </mxCell>
        <mxCell id="zRDwUKBVsf5BpW-rmKpL-95" value="admission_id char(25) NOT NULL" style="shape=partialRectangle;connectable=0;fillColor=none;top=0;left=0;bottom=0;right=0;align=left;spacingLeft=6;overflow=hidden;" vertex="1" parent="1">
          <mxGeometry x="484" y="760" width="220" height="30" as="geometry" />
        </mxCell>
        <mxCell id="zRDwUKBVsf5BpW-rmKpL-113" value="bill_id char(25) NOT NULL" style="shape=partialRectangle;connectable=0;fillColor=none;top=0;left=0;bottom=0;right=0;align=left;spacingLeft=6;overflow=hidden;" vertex="1" parent="1">
          <mxGeometry x="484" y="790" width="220" height="30" as="geometry" />
        </mxCell>
        <mxCell id="zRDwUKBVsf5BpW-rmKpL-124" value="visit_date DATE NOT NULL" style="shape=partialRectangle;overflow=hidden;connectable=0;fillColor=none;top=0;left=0;bottom=0;right=0;align=left;spacingLeft=6;" vertex="1" parent="1">
          <mxGeometry x="200" y="810" width="220" height="30" as="geometry" />
        </mxCell>
        <mxCell id="zRDwUKBVsf5BpW-rmKpL-126" style="edgeStyle=orthogonalEdgeStyle;rounded=0;orthogonalLoop=1;jettySize=auto;html=1;" edge="1" parent="1" source="zRDwUKBVsf5BpW-rmKpL-125" target="zRDwUKBVsf5BpW-rmKpL-114">
          <mxGeometry relative="1" as="geometry" />
        </mxCell>
        <mxCell id="zRDwUKBVsf5BpW-rmKpL-125" value="has" style="shape=rhombus;perimeter=rhombusPerimeter;whiteSpace=wrap;html=1;align=center;fillColor=#a0522d;strokeColor=#6D1F00;fontColor=#ffffff;" vertex="1" parent="1">
          <mxGeometry x="380" y="1020" width="120" height="60" as="geometry" />
        </mxCell>
        <mxCell id="zRDwUKBVsf5BpW-rmKpL-114" value="Bill" style="shape=table;startSize=30;container=1;collapsible=1;childLayout=tableLayout;fixedRows=1;rowLines=0;fontStyle=1;align=center;resizeLast=1;fillColor=#d5e8d4;strokeColor=#82b366;" vertex="1" parent="1">
          <mxGeometry x="315" y="1130" width="250" height="250" as="geometry" />
        </mxCell>
        <mxCell id="zRDwUKBVsf5BpW-rmKpL-115" value="" style="shape=partialRectangle;collapsible=0;dropTarget=0;pointerEvents=0;fillColor=none;points=[[0,0.5],[1,0.5]];portConstraint=eastwest;top=0;left=0;right=0;bottom=1;" vertex="1" parent="zRDwUKBVsf5BpW-rmKpL-114">
          <mxGeometry y="30" width="250" height="30" as="geometry" />
        </mxCell>
        <mxCell id="zRDwUKBVsf5BpW-rmKpL-116" value="PK" style="shape=partialRectangle;overflow=hidden;connectable=0;fillColor=none;top=0;left=0;bottom=0;right=0;fontStyle=1;" vertex="1" parent="zRDwUKBVsf5BpW-rmKpL-115">
          <mxGeometry width="30" height="30" as="geometry" />
        </mxCell>
        <mxCell id="zRDwUKBVsf5BpW-rmKpL-117" value="id int NOT NULL " style="shape=partialRectangle;overflow=hidden;connectable=0;fillColor=none;top=0;left=0;bottom=0;right=0;align=left;spacingLeft=6;fontStyle=5;" vertex="1" parent="zRDwUKBVsf5BpW-rmKpL-115">
          <mxGeometry x="30" width="220" height="30" as="geometry" />
        </mxCell>
        <mxCell id="zRDwUKBVsf5BpW-rmKpL-118" value="" style="shape=partialRectangle;collapsible=0;dropTarget=0;pointerEvents=0;fillColor=none;top=0;left=0;bottom=0;right=0;points=[[0,0.5],[1,0.5]];portConstraint=eastwest;" vertex="1" parent="zRDwUKBVsf5BpW-rmKpL-114">
          <mxGeometry y="60" width="250" height="30" as="geometry" />
        </mxCell>
        <mxCell id="zRDwUKBVsf5BpW-rmKpL-119" value="FK" style="shape=partialRectangle;connectable=0;fillColor=none;top=0;left=0;bottom=0;right=0;editable=1;overflow=hidden;" vertex="1" parent="zRDwUKBVsf5BpW-rmKpL-118">
          <mxGeometry width="30" height="30" as="geometry" />
        </mxCell>
        <mxCell id="zRDwUKBVsf5BpW-rmKpL-120" value="patient_id int NOT NULL" style="shape=partialRectangle;connectable=0;fillColor=none;top=0;left=0;bottom=0;right=0;align=left;spacingLeft=6;overflow=hidden;" vertex="1" parent="zRDwUKBVsf5BpW-rmKpL-118">
          <mxGeometry x="30" width="220" height="30" as="geometry" />
        </mxCell>
        <mxCell id="zRDwUKBVsf5BpW-rmKpL-121" value="" style="shape=partialRectangle;collapsible=0;dropTarget=0;pointerEvents=0;fillColor=none;points=[[0,0.5],[1,0.5]];portConstraint=eastwest;top=0;left=0;right=0;bottom=0;" vertex="1" parent="zRDwUKBVsf5BpW-rmKpL-114">
          <mxGeometry y="90" width="250" height="30" as="geometry" />
        </mxCell>
        <mxCell id="zRDwUKBVsf5BpW-rmKpL-122" value="" style="shape=partialRectangle;overflow=hidden;connectable=0;fillColor=none;top=0;left=0;bottom=0;right=0;" vertex="1" parent="zRDwUKBVsf5BpW-rmKpL-121">
          <mxGeometry width="30" height="30" as="geometry" />
        </mxCell>
        <mxCell id="zRDwUKBVsf5BpW-rmKpL-123" value="admit_id int NULLABLE" style="shape=partialRectangle;overflow=hidden;connectable=0;fillColor=none;top=0;left=0;bottom=0;right=0;align=left;spacingLeft=6;" vertex="1" parent="zRDwUKBVsf5BpW-rmKpL-121">
          <mxGeometry x="30" width="220" height="30" as="geometry" />
        </mxCell>
        <mxCell id="zRDwUKBVsf5BpW-rmKpL-129" value="1" style="text;html=1;align=center;verticalAlign=middle;resizable=0;points=[];autosize=1;" vertex="1" parent="1">
          <mxGeometry x="530" y="1030" width="20" height="20" as="geometry" />
        </mxCell>
        <mxCell id="zRDwUKBVsf5BpW-rmKpL-130" value="1" style="text;html=1;align=center;verticalAlign=middle;resizable=0;points=[];autosize=1;" vertex="1" parent="1">
          <mxGeometry x="320" y="1020" width="20" height="20" as="geometry" />
        </mxCell>
        <mxCell id="zRDwUKBVsf5BpW-rmKpL-131" value="N" style="text;html=1;align=center;verticalAlign=middle;resizable=0;points=[];autosize=1;" vertex="1" parent="1">
          <mxGeometry x="450" y="1100" width="20" height="20" as="geometry" />
        </mxCell>
        <mxCell id="zRDwUKBVsf5BpW-rmKpL-144" style="edgeStyle=orthogonalEdgeStyle;rounded=0;orthogonalLoop=1;jettySize=auto;html=1;exitX=1;exitY=0.5;exitDx=0;exitDy=0;entryX=0.02;entryY=0.111;entryDx=0;entryDy=0;entryPerimeter=0;" edge="1" parent="1" source="zRDwUKBVsf5BpW-rmKpL-132" target="zRDwUKBVsf5BpW-rmKpL-134">
          <mxGeometry relative="1" as="geometry">
            <mxPoint x="830" y="600" as="targetPoint" />
          </mxGeometry>
        </mxCell>
        <mxCell id="zRDwUKBVsf5BpW-rmKpL-132" value="has" style="shape=rhombus;perimeter=rhombusPerimeter;whiteSpace=wrap;html=1;align=center;fillColor=#a0522d;strokeColor=#6D1F00;fontColor=#ffffff;" vertex="1" parent="1">
          <mxGeometry x="610" y="580" width="120" height="60" as="geometry" />
        </mxCell>
        <mxCell id="zRDwUKBVsf5BpW-rmKpL-145" value="1" style="text;html=1;align=center;verticalAlign=middle;resizable=0;points=[];autosize=1;" vertex="1" parent="1">
          <mxGeometry x="575" y="590" width="20" height="20" as="geometry" />
        </mxCell>
        <mxCell id="zRDwUKBVsf5BpW-rmKpL-146" value="1" style="text;html=1;align=center;verticalAlign=middle;resizable=0;points=[];autosize=1;" vertex="1" parent="1">
          <mxGeometry x="700" y="580" width="20" height="20" as="geometry" />
        </mxCell>
        <mxCell id="zRDwUKBVsf5BpW-rmKpL-160" style="edgeStyle=orthogonalEdgeStyle;rounded=0;orthogonalLoop=1;jettySize=auto;html=1;entryX=0.5;entryY=0;entryDx=0;entryDy=0;" edge="1" parent="1" source="zRDwUKBVsf5BpW-rmKpL-134">
          <mxGeometry relative="1" as="geometry">
            <mxPoint x="959" y="610" as="targetPoint" />
          </mxGeometry>
        </mxCell>
        <mxCell id="zRDwUKBVsf5BpW-rmKpL-134" value="Medical_history" style="shape=table;startSize=30;container=1;collapsible=1;childLayout=tableLayout;fixedRows=1;rowLines=0;fontStyle=1;align=center;resizeLast=1;fillColor=#d5e8d4;strokeColor=#82b366;" vertex="1" parent="1">
          <mxGeometry x="834" y="400" width="250" height="180" as="geometry" />
        </mxCell>
        <mxCell id="zRDwUKBVsf5BpW-rmKpL-135" value="" style="shape=partialRectangle;collapsible=0;dropTarget=0;pointerEvents=0;fillColor=none;points=[[0,0.5],[1,0.5]];portConstraint=eastwest;top=0;left=0;right=0;bottom=1;" vertex="1" parent="zRDwUKBVsf5BpW-rmKpL-134">
          <mxGeometry y="30" width="250" height="30" as="geometry" />
        </mxCell>
        <mxCell id="zRDwUKBVsf5BpW-rmKpL-136" value="PK" style="shape=partialRectangle;overflow=hidden;connectable=0;fillColor=none;top=0;left=0;bottom=0;right=0;fontStyle=1;" vertex="1" parent="zRDwUKBVsf5BpW-rmKpL-135">
          <mxGeometry width="30" height="30" as="geometry" />
        </mxCell>
        <mxCell id="zRDwUKBVsf5BpW-rmKpL-137" value="id int NOT NULL " style="shape=partialRectangle;overflow=hidden;connectable=0;fillColor=none;top=0;left=0;bottom=0;right=0;align=left;spacingLeft=6;fontStyle=5;" vertex="1" parent="zRDwUKBVsf5BpW-rmKpL-135">
          <mxGeometry x="30" width="220" height="30" as="geometry" />
        </mxCell>
        <mxCell id="zRDwUKBVsf5BpW-rmKpL-138" value="" style="shape=partialRectangle;collapsible=0;dropTarget=0;pointerEvents=0;fillColor=none;top=0;left=0;bottom=0;right=0;points=[[0,0.5],[1,0.5]];portConstraint=eastwest;" vertex="1" parent="zRDwUKBVsf5BpW-rmKpL-134">
          <mxGeometry y="60" width="250" height="30" as="geometry" />
        </mxCell>
        <mxCell id="zRDwUKBVsf5BpW-rmKpL-139" value="FK" style="shape=partialRectangle;connectable=0;fillColor=none;top=0;left=0;bottom=0;right=0;editable=1;overflow=hidden;" vertex="1" parent="zRDwUKBVsf5BpW-rmKpL-138">
          <mxGeometry width="30" height="30" as="geometry" />
        </mxCell>
        <mxCell id="zRDwUKBVsf5BpW-rmKpL-140" value="patient_id int NOT NULL" style="shape=partialRectangle;connectable=0;fillColor=none;top=0;left=0;bottom=0;right=0;align=left;spacingLeft=6;overflow=hidden;" vertex="1" parent="zRDwUKBVsf5BpW-rmKpL-138">
          <mxGeometry x="30" width="220" height="30" as="geometry" />
        </mxCell>
        <mxCell id="zRDwUKBVsf5BpW-rmKpL-141" value="" style="shape=partialRectangle;collapsible=0;dropTarget=0;pointerEvents=0;fillColor=none;points=[[0,0.5],[1,0.5]];portConstraint=eastwest;top=0;left=0;right=0;bottom=0;" vertex="1" parent="zRDwUKBVsf5BpW-rmKpL-134">
          <mxGeometry y="90" width="250" height="30" as="geometry" />
        </mxCell>
        <mxCell id="zRDwUKBVsf5BpW-rmKpL-142" value="" style="shape=partialRectangle;overflow=hidden;connectable=0;fillColor=none;top=0;left=0;bottom=0;right=0;" vertex="1" parent="zRDwUKBVsf5BpW-rmKpL-141">
          <mxGeometry width="30" height="30" as="geometry" />
        </mxCell>
        <mxCell id="zRDwUKBVsf5BpW-rmKpL-143" value="allergy_detail int NULLABLE" style="shape=partialRectangle;overflow=hidden;connectable=0;fillColor=none;top=0;left=0;bottom=0;right=0;align=left;spacingLeft=6;" vertex="1" parent="zRDwUKBVsf5BpW-rmKpL-141">
          <mxGeometry x="30" width="220" height="30" as="geometry" />
        </mxCell>
        <mxCell id="zRDwUKBVsf5BpW-rmKpL-147" value="Allergy_Details" style="shape=table;startSize=30;container=1;collapsible=1;childLayout=tableLayout;fixedRows=1;rowLines=0;fontStyle=1;align=center;resizeLast=1;fillColor=#d5e8d4;strokeColor=#82b366;" vertex="1" parent="1">
          <mxGeometry x="834" y="680" width="250" height="120" as="geometry" />
        </mxCell>
        <mxCell id="zRDwUKBVsf5BpW-rmKpL-148" value="" style="shape=partialRectangle;collapsible=0;dropTarget=0;pointerEvents=0;fillColor=none;points=[[0,0.5],[1,0.5]];portConstraint=eastwest;top=0;left=0;right=0;bottom=1;" vertex="1" parent="zRDwUKBVsf5BpW-rmKpL-147">
          <mxGeometry y="30" width="250" height="30" as="geometry" />
        </mxCell>
        <mxCell id="zRDwUKBVsf5BpW-rmKpL-149" value="PK" style="shape=partialRectangle;overflow=hidden;connectable=0;fillColor=none;top=0;left=0;bottom=0;right=0;fontStyle=1;" vertex="1" parent="zRDwUKBVsf5BpW-rmKpL-148">
          <mxGeometry width="30" height="30" as="geometry" />
        </mxCell>
        <mxCell id="zRDwUKBVsf5BpW-rmKpL-150" value="id int NOT NULL " style="shape=partialRectangle;overflow=hidden;connectable=0;fillColor=none;top=0;left=0;bottom=0;right=0;align=left;spacingLeft=6;fontStyle=5;" vertex="1" parent="zRDwUKBVsf5BpW-rmKpL-148">
          <mxGeometry x="30" width="220" height="30" as="geometry" />
        </mxCell>
        <mxCell id="zRDwUKBVsf5BpW-rmKpL-151" value="" style="shape=partialRectangle;collapsible=0;dropTarget=0;pointerEvents=0;fillColor=none;top=0;left=0;bottom=0;right=0;points=[[0,0.5],[1,0.5]];portConstraint=eastwest;" vertex="1" parent="zRDwUKBVsf5BpW-rmKpL-147">
          <mxGeometry y="60" width="250" height="30" as="geometry" />
        </mxCell>
        <mxCell id="zRDwUKBVsf5BpW-rmKpL-152" value="FK" style="shape=partialRectangle;connectable=0;fillColor=none;top=0;left=0;bottom=0;right=0;editable=1;overflow=hidden;" vertex="1" parent="zRDwUKBVsf5BpW-rmKpL-151">
          <mxGeometry width="30" height="30" as="geometry" />
        </mxCell>
        <mxCell id="zRDwUKBVsf5BpW-rmKpL-153" value="allergy_detail int NOT NULL" style="shape=partialRectangle;connectable=0;fillColor=none;top=0;left=0;bottom=0;right=0;align=left;spacingLeft=6;overflow=hidden;" vertex="1" parent="zRDwUKBVsf5BpW-rmKpL-151">
          <mxGeometry x="30" width="220" height="30" as="geometry" />
        </mxCell>
        <mxCell id="zRDwUKBVsf5BpW-rmKpL-154" value="" style="shape=partialRectangle;collapsible=0;dropTarget=0;pointerEvents=0;fillColor=none;points=[[0,0.5],[1,0.5]];portConstraint=eastwest;top=0;left=0;right=0;bottom=0;" vertex="1" parent="zRDwUKBVsf5BpW-rmKpL-147">
          <mxGeometry y="90" width="250" height="30" as="geometry" />
        </mxCell>
        <mxCell id="zRDwUKBVsf5BpW-rmKpL-155" value="" style="shape=partialRectangle;overflow=hidden;connectable=0;fillColor=none;top=0;left=0;bottom=0;right=0;" vertex="1" parent="zRDwUKBVsf5BpW-rmKpL-154">
          <mxGeometry width="30" height="30" as="geometry" />
        </mxCell>
        <mxCell id="zRDwUKBVsf5BpW-rmKpL-156" value="allergic_to char(25) NOT NULL" style="shape=partialRectangle;overflow=hidden;connectable=0;fillColor=none;top=0;left=0;bottom=0;right=0;align=left;spacingLeft=6;" vertex="1" parent="zRDwUKBVsf5BpW-rmKpL-154">
          <mxGeometry x="30" width="220" height="30" as="geometry" />
        </mxCell>
        <mxCell id="zRDwUKBVsf5BpW-rmKpL-161" style="edgeStyle=orthogonalEdgeStyle;rounded=0;orthogonalLoop=1;jettySize=auto;html=1;exitX=0.5;exitY=1;exitDx=0;exitDy=0;" edge="1" parent="1">
          <mxGeometry relative="1" as="geometry">
            <mxPoint x="959" y="640" as="targetPoint" />
            <mxPoint x="959" y="640" as="sourcePoint" />
          </mxGeometry>
        </mxCell>
        <mxCell id="zRDwUKBVsf5BpW-rmKpL-162" style="edgeStyle=orthogonalEdgeStyle;rounded=0;orthogonalLoop=1;jettySize=auto;html=1;entryX=0.5;entryY=0;entryDx=0;entryDy=0;" edge="1" parent="1" target="zRDwUKBVsf5BpW-rmKpL-147">
          <mxGeometry relative="1" as="geometry">
            <mxPoint x="959" y="640" as="sourcePoint" />
          </mxGeometry>
        </mxCell>
        <mxCell id="zRDwUKBVsf5BpW-rmKpL-163" value="1" style="text;html=1;align=center;verticalAlign=middle;resizable=0;points=[];autosize=1;" vertex="1" parent="1">
          <mxGeometry x="970" y="590" width="20" height="20" as="geometry" />
        </mxCell>
        <mxCell id="zRDwUKBVsf5BpW-rmKpL-165" value="0 .. N" style="text;html=1;align=center;verticalAlign=middle;resizable=0;points=[];autosize=1;" vertex="1" parent="1">
          <mxGeometry x="970" y="650" width="40" height="20" as="geometry" />
        </mxCell>
        <mxCell id="zRDwUKBVsf5BpW-rmKpL-166" value="medical_history int NOT NULL" style="shape=partialRectangle;overflow=hidden;connectable=0;fillColor=none;top=0;left=0;bottom=0;right=0;align=left;spacingLeft=6;" vertex="1" parent="1">
          <mxGeometry x="355" y="550" width="220" height="30" as="geometry" />
        </mxCell>
        <mxCell id="zRDwUKBVsf5BpW-rmKpL-170" style="edgeStyle=orthogonalEdgeStyle;rounded=0;orthogonalLoop=1;jettySize=auto;html=1;entryX=-0.008;entryY=0.104;entryDx=0;entryDy=0;entryPerimeter=0;" edge="1" parent="1" source="zRDwUKBVsf5BpW-rmKpL-167" target="zRDwUKBVsf5BpW-rmKpL-103">
          <mxGeometry relative="1" as="geometry" />
        </mxCell>
        <mxCell id="zRDwUKBVsf5BpW-rmKpL-167" value="has" style="shape=rhombus;perimeter=rhombusPerimeter;whiteSpace=wrap;html=1;align=center;fillColor=#a0522d;strokeColor=#6D1F00;fontColor=#ffffff;" vertex="1" parent="1">
          <mxGeometry x="680" y="1020" width="70" height="60" as="geometry" />
        </mxCell>
        <mxCell id="zRDwUKBVsf5BpW-rmKpL-169" value="1" style="text;html=1;align=center;verticalAlign=middle;resizable=0;points=[];autosize=1;" vertex="1" parent="1">
          <mxGeometry x="590" y="1030" width="20" height="20" as="geometry" />
        </mxCell>
        <mxCell id="zRDwUKBVsf5BpW-rmKpL-171" value="N" style="text;html=1;align=center;verticalAlign=middle;resizable=0;points=[];autosize=1;" vertex="1" parent="1">
          <mxGeometry x="760" y="1030" width="20" height="20" as="geometry" />
        </mxCell>
        <mxCell id="zRDwUKBVsf5BpW-rmKpL-103" value="Admission" style="shape=table;startSize=30;container=1;collapsible=1;childLayout=tableLayout;fixedRows=1;rowLines=0;fontStyle=1;align=center;resizeLast=1;fillColor=#d5e8d4;strokeColor=#82b366;" vertex="1" parent="1">
          <mxGeometry x="834" y="830" width="250" height="250" as="geometry" />
        </mxCell>
        <mxCell id="zRDwUKBVsf5BpW-rmKpL-104" value="" style="shape=partialRectangle;collapsible=0;dropTarget=0;pointerEvents=0;fillColor=none;points=[[0,0.5],[1,0.5]];portConstraint=eastwest;top=0;left=0;right=0;bottom=1;" vertex="1" parent="zRDwUKBVsf5BpW-rmKpL-103">
          <mxGeometry y="30" width="250" height="30" as="geometry" />
        </mxCell>
        <mxCell id="zRDwUKBVsf5BpW-rmKpL-105" value="PK" style="shape=partialRectangle;overflow=hidden;connectable=0;fillColor=none;top=0;left=0;bottom=0;right=0;fontStyle=1;" vertex="1" parent="zRDwUKBVsf5BpW-rmKpL-104">
          <mxGeometry width="30" height="30" as="geometry" />
        </mxCell>
        <mxCell id="zRDwUKBVsf5BpW-rmKpL-106" value="id int NOT NULL " style="shape=partialRectangle;overflow=hidden;connectable=0;fillColor=none;top=0;left=0;bottom=0;right=0;align=left;spacingLeft=6;fontStyle=5;" vertex="1" parent="zRDwUKBVsf5BpW-rmKpL-104">
          <mxGeometry x="30" width="220" height="30" as="geometry" />
        </mxCell>
        <mxCell id="zRDwUKBVsf5BpW-rmKpL-107" value="" style="shape=partialRectangle;collapsible=0;dropTarget=0;pointerEvents=0;fillColor=none;top=0;left=0;bottom=0;right=0;points=[[0,0.5],[1,0.5]];portConstraint=eastwest;" vertex="1" parent="zRDwUKBVsf5BpW-rmKpL-103">
          <mxGeometry y="60" width="250" height="30" as="geometry" />
        </mxCell>
        <mxCell id="zRDwUKBVsf5BpW-rmKpL-108" value="FK" style="shape=partialRectangle;connectable=0;fillColor=none;top=0;left=0;bottom=0;right=0;editable=1;overflow=hidden;" vertex="1" parent="zRDwUKBVsf5BpW-rmKpL-107">
          <mxGeometry width="30" height="30" as="geometry" />
        </mxCell>
        <mxCell id="zRDwUKBVsf5BpW-rmKpL-109" value="patient_id int NOT NULL" style="shape=partialRectangle;connectable=0;fillColor=none;top=0;left=0;bottom=0;right=0;align=left;spacingLeft=6;overflow=hidden;" vertex="1" parent="zRDwUKBVsf5BpW-rmKpL-107">
          <mxGeometry x="30" width="220" height="30" as="geometry" />
        </mxCell>
        <mxCell id="zRDwUKBVsf5BpW-rmKpL-110" value="" style="shape=partialRectangle;collapsible=0;dropTarget=0;pointerEvents=0;fillColor=none;points=[[0,0.5],[1,0.5]];portConstraint=eastwest;top=0;left=0;right=0;bottom=0;" vertex="1" parent="zRDwUKBVsf5BpW-rmKpL-103">
          <mxGeometry y="90" width="250" height="30" as="geometry" />
        </mxCell>
        <mxCell id="zRDwUKBVsf5BpW-rmKpL-111" value="" style="shape=partialRectangle;overflow=hidden;connectable=0;fillColor=none;top=0;left=0;bottom=0;right=0;" vertex="1" parent="zRDwUKBVsf5BpW-rmKpL-110">
          <mxGeometry width="30" height="30" as="geometry" />
        </mxCell>
        <mxCell id="zRDwUKBVsf5BpW-rmKpL-112" value="admit_date DATE NOT NULL" style="shape=partialRectangle;overflow=hidden;connectable=0;fillColor=none;top=0;left=0;bottom=0;right=0;align=left;spacingLeft=6;" vertex="1" parent="zRDwUKBVsf5BpW-rmKpL-110">
          <mxGeometry x="30" width="220" height="30" as="geometry" />
        </mxCell>
        <mxCell id="zRDwUKBVsf5BpW-rmKpL-188" style="edgeStyle=orthogonalEdgeStyle;rounded=0;orthogonalLoop=1;jettySize=auto;html=1;entryX=0.44;entryY=-0.031;entryDx=0;entryDy=0;entryPerimeter=0;" edge="1" parent="1" target="zRDwUKBVsf5BpW-rmKpL-174">
          <mxGeometry relative="1" as="geometry">
            <mxPoint x="90" y="580" as="sourcePoint" />
          </mxGeometry>
        </mxCell>
        <mxCell id="zRDwUKBVsf5BpW-rmKpL-189" style="edgeStyle=orthogonalEdgeStyle;rounded=0;orthogonalLoop=1;jettySize=auto;html=1;exitX=0;exitY=0.5;exitDx=0;exitDy=0;" edge="1" parent="1">
          <mxGeometry relative="1" as="geometry">
            <mxPoint x="-100" y="530" as="targetPoint" />
            <mxPoint x="90" y="580" as="sourcePoint" />
          </mxGeometry>
        </mxCell>
        <mxCell id="zRDwUKBVsf5BpW-rmKpL-174" value="Patient_Note" style="shape=table;startSize=30;container=1;collapsible=1;childLayout=tableLayout;fixedRows=1;rowLines=0;fontStyle=1;align=center;resizeLast=1;fillColor=#d5e8d4;strokeColor=#82b366;" vertex="1" parent="1">
          <mxGeometry x="-210" y="630" width="250" height="140" as="geometry" />
        </mxCell>
        <mxCell id="zRDwUKBVsf5BpW-rmKpL-175" value="" style="shape=partialRectangle;collapsible=0;dropTarget=0;pointerEvents=0;fillColor=none;points=[[0,0.5],[1,0.5]];portConstraint=eastwest;top=0;left=0;right=0;bottom=1;" vertex="1" parent="zRDwUKBVsf5BpW-rmKpL-174">
          <mxGeometry y="30" width="250" height="30" as="geometry" />
        </mxCell>
        <mxCell id="zRDwUKBVsf5BpW-rmKpL-176" value="PK" style="shape=partialRectangle;overflow=hidden;connectable=0;fillColor=none;top=0;left=0;bottom=0;right=0;fontStyle=1;" vertex="1" parent="zRDwUKBVsf5BpW-rmKpL-175">
          <mxGeometry width="30" height="30" as="geometry" />
        </mxCell>
        <mxCell id="zRDwUKBVsf5BpW-rmKpL-177" value="id int NOT NULL " style="shape=partialRectangle;overflow=hidden;connectable=0;fillColor=none;top=0;left=0;bottom=0;right=0;align=left;spacingLeft=6;fontStyle=5;" vertex="1" parent="zRDwUKBVsf5BpW-rmKpL-175">
          <mxGeometry x="30" width="220" height="30" as="geometry" />
        </mxCell>
        <mxCell id="zRDwUKBVsf5BpW-rmKpL-178" value="" style="shape=partialRectangle;collapsible=0;dropTarget=0;pointerEvents=0;fillColor=none;points=[[0,0.5],[1,0.5]];portConstraint=eastwest;top=0;left=0;right=0;bottom=0;" vertex="1" parent="zRDwUKBVsf5BpW-rmKpL-174">
          <mxGeometry y="60" width="250" height="30" as="geometry" />
        </mxCell>
        <mxCell id="zRDwUKBVsf5BpW-rmKpL-179" value="FK" style="shape=partialRectangle;overflow=hidden;connectable=0;fillColor=none;top=0;left=0;bottom=0;right=0;" vertex="1" parent="zRDwUKBVsf5BpW-rmKpL-178">
          <mxGeometry width="30" height="30" as="geometry" />
        </mxCell>
        <mxCell id="zRDwUKBVsf5BpW-rmKpL-180" value="patient_id int NOT NULL" style="shape=partialRectangle;overflow=hidden;connectable=0;fillColor=none;top=0;left=0;bottom=0;right=0;align=left;spacingLeft=6;" vertex="1" parent="zRDwUKBVsf5BpW-rmKpL-178">
          <mxGeometry x="30" width="220" height="30" as="geometry" />
        </mxCell>
        <mxCell id="zRDwUKBVsf5BpW-rmKpL-181" value="Revision_History" style="shape=table;startSize=30;container=1;collapsible=1;childLayout=tableLayout;fixedRows=1;rowLines=0;fontStyle=1;align=center;resizeLast=1;fillColor=#d5e8d4;strokeColor=#82b366;" vertex="1" parent="1">
          <mxGeometry x="-210" y="320" width="250" height="210" as="geometry" />
        </mxCell>
        <mxCell id="zRDwUKBVsf5BpW-rmKpL-182" value="" style="shape=partialRectangle;collapsible=0;dropTarget=0;pointerEvents=0;fillColor=none;points=[[0,0.5],[1,0.5]];portConstraint=eastwest;top=0;left=0;right=0;bottom=1;" vertex="1" parent="zRDwUKBVsf5BpW-rmKpL-181">
          <mxGeometry y="30" width="250" height="30" as="geometry" />
        </mxCell>
        <mxCell id="zRDwUKBVsf5BpW-rmKpL-183" value="PK" style="shape=partialRectangle;overflow=hidden;connectable=0;fillColor=none;top=0;left=0;bottom=0;right=0;fontStyle=1;" vertex="1" parent="zRDwUKBVsf5BpW-rmKpL-182">
          <mxGeometry width="30" height="30" as="geometry" />
        </mxCell>
        <mxCell id="zRDwUKBVsf5BpW-rmKpL-184" value="id int NOT NULL " style="shape=partialRectangle;overflow=hidden;connectable=0;fillColor=none;top=0;left=0;bottom=0;right=0;align=left;spacingLeft=6;fontStyle=5;" vertex="1" parent="zRDwUKBVsf5BpW-rmKpL-182">
          <mxGeometry x="30" width="220" height="30" as="geometry" />
        </mxCell>
        <mxCell id="zRDwUKBVsf5BpW-rmKpL-185" value="" style="shape=partialRectangle;collapsible=0;dropTarget=0;pointerEvents=0;fillColor=none;points=[[0,0.5],[1,0.5]];portConstraint=eastwest;top=0;left=0;right=0;bottom=0;" vertex="1" parent="zRDwUKBVsf5BpW-rmKpL-181">
          <mxGeometry y="60" width="250" height="30" as="geometry" />
        </mxCell>
        <mxCell id="zRDwUKBVsf5BpW-rmKpL-186" value="FK" style="shape=partialRectangle;overflow=hidden;connectable=0;fillColor=none;top=0;left=0;bottom=0;right=0;" vertex="1" parent="zRDwUKBVsf5BpW-rmKpL-185">
          <mxGeometry width="30" height="30" as="geometry" />
        </mxCell>
        <mxCell id="zRDwUKBVsf5BpW-rmKpL-187" value="patient_id int NOT NULL" style="shape=partialRectangle;overflow=hidden;connectable=0;fillColor=none;top=0;left=0;bottom=0;right=0;align=left;spacingLeft=6;" vertex="1" parent="zRDwUKBVsf5BpW-rmKpL-185">
          <mxGeometry x="30" width="220" height="30" as="geometry" />
        </mxCell>
        <mxCell id="zRDwUKBVsf5BpW-rmKpL-190" value="1" style="text;html=1;align=center;verticalAlign=middle;resizable=0;points=[];autosize=1;" vertex="1" parent="1">
          <mxGeometry x="220" y="560" width="20" height="20" as="geometry" />
        </mxCell>
        <mxCell id="zRDwUKBVsf5BpW-rmKpL-191" value="N" style="text;html=1;align=center;verticalAlign=middle;resizable=0;points=[];autosize=1;" vertex="1" parent="1">
          <mxGeometry x="-90" y="560" width="20" height="20" as="geometry" />
        </mxCell>
        <mxCell id="zRDwUKBVsf5BpW-rmKpL-192" value="N" style="text;html=1;align=center;verticalAlign=middle;resizable=0;points=[];autosize=1;" vertex="1" parent="1">
          <mxGeometry x="-90" y="580" width="20" height="20" as="geometry" />
        </mxCell>
        <mxCell id="zRDwUKBVsf5BpW-rmKpL-193" value="previous_value char(255) NOT NULL" style="shape=partialRectangle;overflow=hidden;connectable=0;fillColor=none;top=0;left=0;bottom=0;right=0;align=left;spacingLeft=6;" vertex="1" parent="1">
          <mxGeometry x="-180" y="400" width="220" height="30" as="geometry" />
        </mxCell>
        <mxCell id="zRDwUKBVsf5BpW-rmKpL-194" value="new_value char(255) NOT NULL" style="shape=partialRectangle;overflow=hidden;connectable=0;fillColor=none;top=0;left=0;bottom=0;right=0;align=left;spacingLeft=6;" vertex="1" parent="1">
          <mxGeometry x="-180" y="425" width="220" height="30" as="geometry" />
        </mxCell>
        <mxCell id="zRDwUKBVsf5BpW-rmKpL-195" value="attribute_updated char(255) NOT NULL" style="shape=partialRectangle;overflow=hidden;connectable=0;fillColor=none;top=0;left=0;bottom=0;right=0;align=left;spacingLeft=6;" vertex="1" parent="1">
          <mxGeometry x="-181" y="450" width="220" height="30" as="geometry" />
        </mxCell>
        <mxCell id="zRDwUKBVsf5BpW-rmKpL-196" value="modification_date DATE NOT NULL" style="shape=partialRectangle;overflow=hidden;connectable=0;fillColor=none;top=0;left=0;bottom=0;right=0;align=left;spacingLeft=6;" vertex="1" parent="1">
          <mxGeometry x="-180" y="477" width="220" height="30" as="geometry" />
        </mxCell>
        <mxCell id="zRDwUKBVsf5BpW-rmKpL-197" value="changed_by int NOT NULL" style="shape=partialRectangle;overflow=hidden;connectable=0;fillColor=none;top=0;left=0;bottom=0;right=0;align=left;spacingLeft=6;" vertex="1" parent="1">
          <mxGeometry x="-180" y="500" width="220" height="30" as="geometry" />
        </mxCell>
        <mxCell id="zRDwUKBVsf5BpW-rmKpL-198" value="FK" style="text;html=1;align=center;verticalAlign=middle;resizable=0;points=[];autosize=1;" vertex="1" parent="1">
          <mxGeometry x="-205" y="507" width="30" height="20" as="geometry" />
        </mxCell>
        <mxCell id="zRDwUKBVsf5BpW-rmKpL-199" value="changed_by int NOT NULL" style="shape=partialRectangle;overflow=hidden;connectable=0;fillColor=none;top=0;left=0;bottom=0;right=0;align=left;spacingLeft=6;" vertex="1" parent="1">
          <mxGeometry x="-180" y="715" width="220" height="30" as="geometry" />
        </mxCell>
        <mxCell id="zRDwUKBVsf5BpW-rmKpL-200" value="FK" style="text;html=1;align=center;verticalAlign=middle;resizable=0;points=[];autosize=1;" vertex="1" parent="1">
          <mxGeometry x="-209" y="718" width="30" height="20" as="geometry" />
        </mxCell>
        <mxCell id="zRDwUKBVsf5BpW-rmKpL-201" value="insert_date DATE NOT NULL" style="shape=partialRectangle;overflow=hidden;connectable=0;fillColor=none;top=0;left=0;bottom=0;right=0;align=left;spacingLeft=6;" vertex="1" parent="1">
          <mxGeometry x="-179" y="738" width="220" height="30" as="geometry" />
        </mxCell>
        <mxCell id="zRDwUKBVsf5BpW-rmKpL-202" value="has" style="shape=rhombus;double=1;perimeter=rhombusPerimeter;whiteSpace=wrap;html=1;align=center;fillColor=#fad7ac;strokeColor=#b46504;" vertex="1" parent="1">
          <mxGeometry x="899" y="610" width="120" height="50" as="geometry" />
        </mxCell>
        <mxCell id="zRDwUKBVsf5BpW-rmKpL-203" value="has" style="shape=rhombus;double=1;perimeter=rhombusPerimeter;whiteSpace=wrap;html=1;align=center;fillColor=#fad7ac;strokeColor=#b46504;" vertex="1" parent="1">
          <mxGeometry x="90" y="550" width="120" height="60" as="geometry" />
        </mxCell>
        <mxCell id="zRDwUKBVsf5BpW-rmKpL-204" style="edgeStyle=orthogonalEdgeStyle;rounded=0;orthogonalLoop=1;jettySize=auto;html=1;exitX=0;exitY=0.5;exitDx=0;exitDy=0;entryX=1;entryY=0.5;entryDx=0;entryDy=0;" edge="1" parent="1" source="C-vyLk0tnHw3VtMMgP7b-27" target="zRDwUKBVsf5BpW-rmKpL-203">
          <mxGeometry relative="1" as="geometry" />
        </mxCell>
      </root>
    </mxGraphModel>
  </diagram>
</mxfile>
